<svg xmlns="http://www.w3.org/2000/svg" viewBox="0 0 480 200" width="480" height="200"><defs></defs><rect width="480" height="200" rx="0" fill="#DAF3E3"></rect><g transform="translate(150,30)"><rect width="180" height="150" rx="16" fill="#FFFFFF" stroke="#B7E4C6" stroke-width="3"></rect><rect width="180" height="40" rx="16" fill="#1E7A48"></rect><rect y="24" width="180" height="16" fill="#1E7A48"></rect><rect x="40" y="-10" width="8" height="24" rx="4" fill="#15213D"></rect><rect x="132" y="-10" width="8" height="24" rx="4" fill="#15213D"></rect>
<g fill="#CFEEDA"><rect x="16" y="56" width="26" height="22" rx="4"></rect><rect x="50" y="56" width="26" height="22" rx="4"></rect><rect x="84" y="56" width="26" height="22" rx="4"></rect><rect x="16" y="88" width="26" height="22" rx="4"></rect><rect x="50" y="88" width="26" height="22" rx="4"></rect><rect x="84" y="88" width="26" height="22" rx="4"></rect><rect x="16" y="120" width="26" height="22" rx="4"></rect><rect x="50" y="120" width="26" height="22" rx="4"></rect></g>
<rect x="118" y="56" width="48" height="54" rx="8" fill="#1E7A48"></rect><path d="M130 84l9 9 16-18" stroke="#FFFFFF" stroke-width="5" fill="none" stroke-linecap="round" stroke-linejoin="round"></path></g><circle cx="80" cy="60" r="10" fill="#B7E4C6"></circle><circle cx="410" cy="150" r="16" fill="#B7E4C6"></circle><circle cx="400" cy="50" r="6" fill="#1E7A48"></circle></svg>